<?xml version="1.0" encoding="UTF-8" standalone="no"?>
<svg
   xmlns:dc="http://purl.org/dc/elements/1.1/"
   xmlns:cc="http://creativecommons.org/ns#"
   xmlns:rdf="http://www.w3.org/1999/02/22-rdf-syntax-ns#"
   xmlns:svg="http://www.w3.org/2000/svg"
   xmlns="http://www.w3.org/2000/svg"
   viewBox="0 0 592 73.333336"
   height="73.333336"
   width="592"
   xml:space="preserve"
   id="svg2"
   version="1.1"><metadata
     id="metadata8"><rdf:RDF><cc:Work
         rdf:about=""><dc:format>image/svg+xml</dc:format><dc:type
           rdf:resource="http://purl.org/dc/dcmitype/StillImage" /></cc:Work></rdf:RDF></metadata><defs
     id="defs6" /><g
     transform="matrix(1.3333333,0,0,-1.3333333,0,73.333333)"
     id="g10"><g
       transform="scale(0.1)"
       id="g12"><path
         id="path14"
         style="fill:#dee3e3;fill-opacity:1;fill-rule:evenodd;stroke:none"
         d="M 266.801,106.41 C 203.238,104.648 150.898,99.0195 109.77,89.5703 68.6719,79.9609 47.3789,68.2383 46.0195,54.4492 47.7695,39.7305 72.1094,27.4219 118.91,17.5781 165.738,7.92969 224.488,2.92969 295.121,2.53906 c 47.027,0 89.41,2.46094 127.18,7.33985 37.82,4.73049 67.699,11.06249 89.769,18.91019 -1.41,-0.1993 -2.691,-0.5078 -3.871,-0.8985 -46.597,-10.6211 -91.168,-8.75 -133.668,5.6289 -42.5,14.5703 -78.441,38.8594 -107.73,72.8905" /><path
         id="path16"
         style="fill:#949ca1;fill-opacity:1;fill-rule:evenodd;stroke:none"
         d="m 223.98,536.719 c 33.29,-14.918 69.461,-35.43 108.641,-61.367 11.789,6.679 24.289,12.378 37.457,17.109 -51.957,20.078 -100.629,34.84 -146.098,44.258" /><path
         id="path18"
         style="fill:#949ca1;fill-opacity:1;fill-rule:evenodd;stroke:none"
         d="m 689.41,310.352 c 3.168,-15.743 4.731,-31.372 4.731,-46.954 40.16,-34.808 71.449,-69.609 93.871,-104.449 22.418,-34.648 22.218,-62.6599 -0.59,-84.1092 1.168,-0.1914 2.269,5.3907 3.238,16.8399 0.789,11.5583 -5.23,30.1993 -18,55.7423 -12.582,25.59 -38.988,59.457 -79.109,101.527 -2.379,-35.98 -11.91,-69.461 -28.629,-100.32 30.699,-51.9493 38.988,-89.4493 24.808,-112.4571 -0.98,-1.7617 -2.191,-3.2422 -3.558,-4.4531 74.957,-5.668 122.887,9.1796 143.75,44.5703 13.359,27.9729 7.269,62.5819 -18.32,103.9099 -25.582,41.321 -66.293,84.68 -122.192,130.153" /><path
         id="path20"
         style="fill:#ffffff;fill-opacity:1;fill-rule:evenodd;stroke:none"
         d="m 693.551,248.949 c 39.969,-42.07 66.289,-75.937 79.109,-101.527 12.77,-25.543 18.711,-44.063 17.692,-55.4728 -0.973,-11.5976 -1.954,-17.3008 -2.93,-17.1094 22.808,21.4493 23.008,49.4612 0.59,84.1092 -22.422,34.84 -53.832,69.641 -94.184,104.449 0.231,-4.878 0.121,-9.726 -0.277,-14.449" /><path
         id="path22"
         style="fill:#ffffff;fill-opacity:1;fill-rule:evenodd;stroke:none"
         d="m 643.672,411.602 c 0.59,-1.012 1.367,-1.993 2.379,-2.973 -0.781,0.98 -1.563,1.961 -2.379,2.973" /><path
         id="path24"
         style="fill:#ffffff;fill-opacity:1;fill-rule:evenodd;stroke:none"
         d="m 529.77,127.969 c -4.93,7.461 -11.719,11.992 -20.391,13.551 -8.438,1.41 -16.219,4.14 -23.328,8.281 -6.871,4.929 -13.43,9.929 -19.723,15.039 -2.969,1.801 -5.156,4.34 -6.527,7.699 0.199,1.563 0.469,3.441 0.859,5.582 -1.949,2 -3.59,4.418 -5,7.391 -0.191,4.718 1.102,8.867 3.828,12.418 2.782,3.519 3.672,7.73 2.66,12.66 -1.949,3.75 -5.699,6.91 -11.207,9.449 -5.671,2.582 -7.582,0.699 -5.589,-5.59 -6.524,-2.379 -13.59,-1.008 -21.25,4.102 -7.891,5.32 -15.082,8.359 -21.563,9.179 -7.07,-0.621 -13.949,-1.281 -20.629,-2.07 -9.449,-0.39 -18.898,-0.308 -28.359,0.281 -13.981,3.161 -24.879,10.231 -32.77,21.25 -7.851,11.207 -17.5,20.27 -28.902,27.149 2.73,-6.102 5.312,-12.192 7.691,-18.289 5.899,-1.211 9.489,-4.723 10.899,-10.621 -7.071,3.91 -12.309,9.531 -15.629,16.8 -5.5,6.719 -11.25,13.508 -17.141,20.391 -9.808,13.399 -12.469,27.93 -7.969,43.668 2.18,7.852 2.969,15.551 2.379,23.012 -1.8,1.988 -3.437,5.23 -5,9.758 0.551,3.519 1.442,7.07 2.621,10.589 0.969,9.454 -2.23,15.864 -9.73,19.223 -3.551,-0.199 -7.66,-2.152 -12.379,-5.941 -2.582,-3.711 -5.902,-6.45 -10.043,-8.239 -0.387,1.559 0.082,3.75 1.481,6.52 -12.18,-22.07 -20.778,-45.59 -25.7,-70.59 33.09,-35.973 70.743,-72.07 113.051,-108.281 C 389.379,149.219 448.711,106.988 504.379,75.7383 452.23,93.6289 398.441,116.84 342.93,145.352 c -47.418,24.808 -90.981,50.777 -130.739,77.929 0.969,-5.312 2.071,-10.82 3.239,-16.519 9.84,-38.563 26.949,-71.992 51.371,-100.352 29.488,-34.0311 65.39,-58.3202 107.73,-72.8905 42.5,-14.3789 87.071,-16.25 133.668,-5.6289 1.371,0.3907 2.66,0.8203 3.871,1.211 15.899,3.9101 30.981,9.4492 45.121,16.5195 C 545,49.3398 538.398,61.1719 537.422,81.0195 536.449,100.898 533.91,116.52 529.77,127.969" /><path
         id="path26"
         style="fill:#ffffff;fill-opacity:1;fill-rule:evenodd;stroke:none"
         d="m 463.359,279.059 c -2.379,-3.321 -5.308,-5.387 -8.871,-6.207 -0.187,3.359 1.293,6.41 4.461,9.179 3.121,2.739 5.071,3.321 5.891,1.758 0.16,-1.367 -0.309,-2.93 -1.481,-4.73 m -25.078,-5.899 c -10.082,-1.359 -20.781,-2.07 -32.191,-2.07 0.789,5.32 6.019,8.09 15.672,8.289 9.41,0 16.398,-0.32 20.937,-0.899 0.781,-3.359 -0.711,-5.121 -4.418,-5.32 m -12.422,173.828 c -5.699,-0.386 -10.937,1.492 -15.629,5.633 -4.718,3.938 -9.371,6.867 -13.859,8.828 -11.449,2.571 -23.133,2.379 -35.121,-0.551 -1.41,6.293 2.148,11.993 10.629,17.114 8.242,5.109 15.031,7.148 20.351,6.168 l -2.07,3.832 c 4.102,-5.282 9.918,-8.172 17.379,-8.563 7.301,-0.39 12.813,-2.73 16.563,-7.07 2.148,-5.109 3.828,-10.309 5,-15.66 4.527,-5.668 3.437,-8.949 -3.243,-9.731 M 389.262,434.02 c -5.512,-1.559 -11.801,-2.379 -18.871,-2.379 -0.981,5.898 -4.141,8.98 -9.45,9.14 -5.32,0.239 -8.363,3.168 -9.14,8.867 l 10,-0.859 c 6.91,-5.348 15.39,-6.519 25.39,-3.559 -1.371,-4.718 -0.671,-8.468 2.071,-11.21 m 60.816,-24.219 c 0.192,-1.36 0.082,-2.731 -0.308,-4.141 -4.34,-1.359 -8.559,-2.851 -12.7,-4.41 -2.968,3.75 -3.121,7.301 -0.59,10.629 l 2.348,-0.59 c 3.551,-0.98 7.301,-1.488 11.25,-1.488 m 243.75,-146.403 c 0,15.582 -1.449,31.211 -4.418,46.954 -0.781,3.558 -1.558,7.07 -2.34,10.628 -3.949,16.52 -9.449,32.18 -16.519,46.95 -0.391,0 -0.711,-0.121 -0.903,-0.309 2.34,-8.281 0.973,-15.16 -4.136,-20.672 -6.293,0 -12.782,2.27 -19.461,6.801 -12.61,7.852 -22.852,18.199 -30.699,30.98 -4.922,5.5 -8.59,11.872 -10.942,19.18 -3.16,6.289 -6.988,11.789 -11.48,16.52 -3.16,4.34 -7.192,10.55 -12.11,18.59 -4.922,8.089 -5.82,13.402 -2.66,15.941 -0.969,4.34 -1.988,8.668 -2.961,13.008 3.551,-0.391 6.321,-1.989 8.281,-4.731 2.54,-0.617 4.918,-0.898 7.071,-0.898 -11.02,7.89 -22.621,14.769 -34.813,20.672 -1.789,-0.203 -3.359,0 -4.718,0.578 1.359,-6.871 4.921,-11.602 10.621,-14.141 5.699,-2.57 9.918,-6.91 12.66,-13 1.789,-7.269 -0.391,-9.73 -6.492,-7.39 -6.289,2.39 -11.289,4.613 -15.039,6.8 -3.551,0.782 -6.68,1.68 -9.45,2.661 -0.98,3.941 -0.859,6.679 0.309,8.281 -2.578,4.879 -6.598,7.148 -12.109,6.75 -3.75,4.539 -8.551,6.41 -14.45,5.629 -4.922,-1.801 -10.121,-3.16 -15.66,-4.141 -4.109,3.16 -8.129,5.981 -12.07,8.551 6.68,0 13.672,0.789 20.93,2.39 -3.551,5.071 -8.668,8.551 -15.348,10.309 -6.094,-2.93 -11.211,-2.848 -15.313,0.27 -5.937,-1.329 -11.839,-2.028 -17.73,-2.028 -0.399,0.391 -2.539,1.641 -6.488,3.828 -3.942,2.379 -6.993,3.832 -9.18,4.411 -5.512,-0.192 -10.391,0.781 -14.731,2.968 -12.378,-0.968 -24.8,-2.968 -37.218,-5.898 -8.242,-2.18 -16.293,-4.61 -24.184,-7.379 C 357.109,487.93 344.609,482.34 332.621,475.621 295,454.18 265.309,425.352 243.48,389.141 c 3.899,5.507 7.18,9.57 9.719,12.109 5.512,4.73 11.02,9.34 16.531,13.871 2.379,5.109 5.7,9.059 10.04,11.828 2.57,-1.211 5.82,-2.57 9.718,-4.179 5.742,0.39 11.133,1.332 16.25,2.699 9.461,-1.989 17.313,-1.598 23.602,1.172 -15.551,5.121 -14.852,8.629 2.07,10.629 7.891,0 14.57,-2.391 20.07,-7.11 -3.359,-3.519 -7.07,-9.219 -11.21,-17.109 -3.942,-7.852 -3.04,-13.281 2.66,-16.211 6.09,0.781 12.89,1.25 20.351,1.48 5.117,-4.73 10.547,-8.011 16.25,-9.769 -2.152,10.039 -4.453,19.609 -6.801,28.64 1.02,5.309 3.25,7.379 6.801,6.207 3.559,-1.41 7.27,-2.847 11.207,-4.449 0.981,8.672 5.512,11.051 13.602,7.102 3.32,-0.391 8.039,-0.781 14.14,-1.172 5.899,-0.391 10.11,-1.598 12.692,-3.551 2.777,-3.949 1.289,-8.949 -4.41,-15.039 -5.711,-6.129 -10.16,-11.019 -13.282,-14.769 4.719,0.39 8.821,0 12.379,-1.211 3.161,0.242 6.68,1.211 10.621,2.972 -1.359,-7.07 -5.89,-10.511 -13.55,-10.351 -3.36,-8.629 -6.52,-16.879 -9.45,-24.77 -3.171,-6.871 -4.339,-14.25 -3.558,-22.14 -3.16,-8.442 -5.902,-16.918 -8.281,-25.399 2.578,-7.461 5.82,-15.23 9.769,-23.281 -1.57,-0.781 -3.172,-1.211 -4.73,-1.211 -3.75,6.332 -8.95,9.652 -15.629,10.043 -2.961,0.777 -6.711,1.098 -11.25,0.898 -4.332,-0.191 -6.563,-2.539 -6.75,-7.109 -5.121,-2.109 -9.141,-3.012 -12.11,-2.621 -2.742,0.199 -5.32,-2.961 -7.703,-9.449 -3.117,-8.051 -2.847,-16.442 0.903,-25.082 5.308,-8.278 12.699,-11.911 22.148,-10.93 2.731,1.949 4.801,5.312 6.172,10.031 1.598,4.539 3.48,7.469 5.629,8.871 4.332,1.168 6.68,-0.902 7.109,-6.211 0.539,-5.308 1.832,-9.449 3.821,-12.379 3.71,-2.781 7.269,-3.242 10.628,-1.492 3.321,1.961 6.872,2.352 10.622,1.18 3.32,-6.879 7.929,-13.168 13.832,-18.867 4.957,0 8.398,1.558 10.347,4.718 4.531,0.59 7.891,0.79 10.039,0.59 1.762,0.2 3.633,0.391 5.633,0.59 -3.172,11.988 -0.121,18.59 9.141,19.762 9.019,1.367 17.418,2.539 25.078,3.558 6.09,4.879 13.082,7.77 20.93,8.551 7.89,-2.769 15.75,-5 23.64,-6.801 8.281,3.129 16.828,4.032 25.66,2.661 4.34,-2.34 7.7,-4.34 10.039,-5.903 2.192,-1.789 6.211,-2.187 12.11,-1.168 9.261,2.539 17.812,4.219 25.66,5 8.051,0.782 13.601,-3.949 16.531,-14.179 5.738,-24.571 2.692,-48.012 -9.14,-70.231 -4.731,-11.019 -9.071,-22.109 -13.008,-33.359 C 603.238,125 596.449,115.59 586.41,108.48 c 4.719,-4.339 3.86,-8.9487 -2.66,-13.8706 -6.48,-5.1211 -11.289,-9.5313 -14.449,-13.2813 -6.289,-11.4062 -7.461,-21.8398 -3.563,-31.289 43.321,23.6328 76.371,56.4809 99.184,98.5899 16.527,31.062 26.098,64.531 28.629,100.32 0.199,4.723 0.277,9.571 0.277,14.449" /><path
         id="path28"
         style="fill:#005494;fill-opacity:1;fill-rule:evenodd;stroke:none"
         d="m 569.609,81.3281 c 3.121,3.75 7.969,8.1602 14.45,13.2813 6.293,4.9219 7.191,9.5316 2.66,13.8706 10.043,7.11 16.832,16.52 20.351,28.321 3.75,11.25 8.09,22.461 12.969,33.668 11.84,22.031 14.883,45.351 9.18,69.922 -2.969,10.23 -8.481,14.961 -16.52,14.179 -8.051,-0.781 -16.648,-2.34 -25.668,-4.73 -5.941,-0.969 -9.961,-0.66 -12.109,0.898 -2.383,1.563 -5.703,3.563 -10.043,5.903 -9.059,1.371 -17.609,0.589 -25.699,-2.34 -7.852,1.558 -15.7,3.711 -23.59,6.48 -8.09,-0.582 -15.078,-3.441 -20.981,-8.551 -7.66,-1.019 -16.089,-2.191 -25.347,-3.558 -9.063,-1.172 -12.114,-7.774 -9.141,-19.762 -2,-0.199 -3.75,-0.39 -5.351,-0.59 -2.149,0.2 -5.508,0 -10,-0.59 -2,-3.16 -5.508,-4.718 -10.668,-4.718 -5.661,5.699 -10.313,11.988 -13.832,18.867 -3.551,1.172 -7.071,0.781 -10.622,-1.18 -3.359,-1.75 -6.796,-1.289 -10.347,1.492 -1.961,2.93 -3.25,7.071 -3.832,12.379 -0.59,5.309 -3.047,7.379 -7.379,6.211 -1.961,-1.402 -3.75,-4.332 -5.32,-8.871 -1.559,-4.719 -3.75,-8.082 -6.481,-10.031 -9.449,-0.981 -16.84,2.652 -22.148,10.93 -3.52,8.871 -3.75,17.191 -0.59,25.082 2.187,6.488 4.73,9.648 7.699,9.449 2.73,-0.391 6.762,0.512 12.109,2.621 0,4.57 2.231,6.918 6.762,7.109 4.527,0.391 8.238,0.2 11.207,-0.59 6.481,-0.582 11.602,-4.019 15.352,-10.351 1.8,0.242 3.441,0.633 5.039,1.211 -3.949,8.051 -7.309,15.82 -10.078,23.281 2.578,8.481 5.347,16.957 8.281,25.399 -0.582,7.89 0.699,15.269 3.828,22.14 2.77,7.891 5.898,16.141 9.449,24.77 7.699,-0.16 12.231,3.281 13.602,10.351 -3.949,-1.761 -7.5,-2.73 -10.629,-2.972 -3.551,1.211 -7.692,1.601 -12.422,1.211 3.16,3.75 7.578,8.64 13.281,14.769 5.739,6.09 7.071,11.09 4.141,15.039 -2.582,1.953 -6.793,3.16 -12.692,3.551 -5.902,0.391 -10.511,0.781 -13.871,1.172 -8.05,3.949 -12.699,1.57 -13.871,-7.102 -3.937,1.602 -7.648,3.039 -11.207,4.449 -3.551,1.172 -5.703,-0.898 -6.48,-6.207 2.34,-9.031 4.527,-18.601 6.48,-28.64 -5.511,1.758 -10.902,5.039 -16.25,9.769 -7.261,-0.23 -14.062,-0.699 -20.351,-1.48 -5.7,2.93 -6.481,8.359 -2.34,16.211 4.101,7.89 7.769,13.59 10.89,17.109 -5.308,4.719 -11.91,7.11 -19.761,7.11 -17.11,-2 -17.809,-5.508 -2.071,-10.629 -6.289,-2.77 -14.257,-3.161 -23.91,-1.172 -5.117,-1.367 -10.429,-2.309 -15.937,-2.699 -4.141,1.609 -7.379,2.968 -9.723,4.179 -4.527,-2.57 -7.887,-6.519 -10.039,-11.828 -5.699,-4.531 -11.328,-9.031 -16.84,-13.562 -2.539,-2.77 -5.699,-6.911 -9.449,-12.418 -1.762,-2.731 -3.199,-5.313 -4.41,-7.661 -1.371,-2.769 -1.961,-5 -1.762,-6.789 4.141,1.789 7.582,4.528 10.313,8.239 4.531,3.949 8.558,5.941 12.109,5.941 7.5,-3.359 10.699,-9.769 9.73,-19.223 -0.98,-3.32 -1.839,-6.839 -2.621,-10.589 1.563,-4.329 3.321,-7.579 5.27,-9.758 0.391,-7.461 -0.469,-15.16 -2.649,-23.012 -4.5,-15.551 -1.761,-30.117 8.282,-43.668 5.699,-6.723 11.328,-13.48 16.828,-20.391 3.32,-7.269 8.558,-12.781 15.629,-16.531 -1.168,5.903 -4.731,9.379 -10.629,10.352 -2.57,6.289 -5.11,12.39 -7.649,18.289 11.399,-6.879 20.93,-15.82 28.59,-26.84 7.891,-11.211 18.789,-18.281 32.77,-21.25 9.461,-0.82 18.91,-0.898 28.359,-0.309 6.68,0.579 13.559,1.289 20.629,2.071 6.481,-0.981 13.672,-4.032 21.563,-9.141 7.886,-5.32 14.957,-6.723 21.25,-4.141 -1.762,6.09 0.078,7.891 5.589,5.309 5.508,-2.539 9.258,-5.59 11.207,-9.141 1.211,-4.918 0.391,-9.136 -2.347,-12.699 -2.961,-3.551 -4.332,-7.648 -4.141,-12.379 1.61,-2.968 3.36,-5.511 5.32,-7.699 -0.589,-2.141 -0.98,-3.902 -1.179,-5.312 1.57,-3.321 3.75,-5.969 6.527,-7.969 6.293,-5.11 12.852,-10.11 19.723,-15.039 7.109,-4.141 14.969,-6.871 23.64,-8.281 8.668,-1.36 15.43,-5.782 20.348,-13.282 3.941,-11.398 6.41,-27.148 7.383,-47.2185 0.976,-19.8476 7.578,-31.6797 19.769,-35.3984 3.36,-0.3906 7.297,0.0781 11.829,1.4883 -1.211,0.7812 -2.18,1.7617 -2.969,2.9297 -3.942,9.4492 -2.731,19.8828 3.558,31.289" /><path
         id="path30"
         style="fill:#005494;fill-opacity:1;fill-rule:evenodd;stroke:none"
         d="m 575.199,467.66 c 0.973,-4.14 1.871,-8.359 2.653,-12.699 -2.93,-2.539 -1.954,-7.973 2.968,-16.211 4.918,-8.09 8.95,-14.18 12.11,-18.32 4.492,-4.879 8.32,-10.43 11.48,-16.52 2.352,-7.308 6.02,-13.68 10.942,-19.18 7.847,-12.968 18.089,-23.32 30.699,-30.98 6.679,-4.73 13.168,-7.109 19.461,-7.109 5.109,5.699 6.476,12.699 4.136,20.98 0.192,0.188 0.512,0.309 0.903,0.309 1.949,0.39 3.238,-0.7 3.828,-3.282 v 4.141 c 2.73,4.731 0.269,10.941 -7.391,18.59 -7.648,7.66 -14.648,14.769 -20.937,21.25 -1.012,0.98 -1.789,1.961 -2.379,2.973 -2.152,2.738 -2.731,5 -1.762,6.757 -9.25,10.469 -19.57,20.391 -30.969,29.801 -5.121,5.121 -10.55,9.57 -16.25,13.289 -1.601,0.621 -2.929,0.891 -4.14,0.891 -2.153,-0.192 -4.531,0.121 -7.071,0.898 -1.96,2.742 -4.73,4.223 -8.281,4.422" /><path
         id="path32"
         style="fill:#005494;fill-opacity:1;fill-rule:evenodd;stroke:none"
         d="m 424.102,472.379 c -3.75,4.34 -9.262,6.68 -16.563,7.07 -7.461,0.242 -13.277,3.051 -17.379,8.563 l 1.75,-3.832 c -5.109,0.98 -11.871,-1.059 -20.351,-6.168 -8.278,-5.121 -11.719,-10.821 -10.309,-17.114 11.988,2.93 23.672,3.122 35.121,0.551 4.488,-1.961 9.141,-5 13.859,-9.148 4.692,-3.903 9.93,-5.699 15.629,-5.313 6.68,0.782 7.77,4.063 3.243,9.731 -1.172,5.351 -2.852,10.551 -5,15.66" /><path
         id="path34"
         style="fill:#005494;fill-opacity:1;fill-rule:evenodd;stroke:none"
         d="m 446.211,502.77 c 2.187,-0.579 5.238,-2.032 9.18,-4.411 3.949,-2.339 6.089,-3.629 6.488,-3.828 5.699,0 11.601,0.699 17.73,2.028 4.102,-3.321 9.219,-3.508 15.313,-0.539 6.68,-1.61 11.719,-4.969 15.039,-10.04 -7.07,-1.8 -13.941,-2.582 -20.621,-2.39 3.941,-2.57 7.851,-5.391 11.789,-8.551 5.711,0.781 11.019,2.07 15.941,3.832 5.899,0.82 10.7,-0.98 14.45,-5.32 5.32,0.238 9.339,-2.071 12.109,-6.75 -1.168,-1.602 -1.289,-4.461 -0.309,-8.602 2.578,-0.969 5.7,-1.75 9.45,-2.34 3.75,-2.339 8.64,-4.648 14.769,-6.8 6.289,-2.34 8.551,0.121 6.762,7.39 -2.742,5.891 -6.961,10.11 -12.66,12.692 -5.903,2.539 -9.45,7.379 -10.621,14.449 1.359,-0.578 2.929,-0.86 4.718,-0.86 1.371,0.161 2.621,0.161 3.832,0 -7.66,6.059 -16.84,10 -27.461,11.801 -10.039,4.489 -20.55,8.047 -31.597,10.629 -18.481,4.289 -37.153,6.68 -56.063,7.07 -2.148,0.192 -5.308,0.192 -9.41,0 -4.141,-0.199 -5.43,-2.39 -3.867,-6.492 4.527,-2.379 9.527,-3.359 15.039,-2.968" /><path
         id="path36"
         style="fill:#005494;fill-opacity:1;fill-rule:evenodd;stroke:none"
         d="m 406.09,271.09 c 11.609,0 22.43,0.711 32.461,2.07 3.75,0.199 5.238,1.961 4.418,5.32 -4.528,0.579 -11.598,0.899 -21.207,0.899 -9.653,-0.199 -14.883,-2.969 -15.672,-8.289" /><path
         id="path38"
         style="fill:#005494;fill-opacity:1;fill-rule:evenodd;stroke:none"
         d="m 454.488,272.852 c 3.75,0.82 6.801,2.886 9.141,6.207 1.211,1.562 1.68,3.171 1.492,4.73 -0.781,1.563 -2.742,0.981 -5.902,-1.758 -3.168,-2.769 -4.731,-5.82 -4.731,-9.179" /><path
         id="path40"
         style="fill:#005494;fill-opacity:1;fill-rule:evenodd;stroke:none"
         d="m 387.5,445.23 c -10.039,-2.96 -18.48,-1.789 -25.391,3.559 l -10.039,0.859 c 0.782,-5.699 3.828,-8.628 9.18,-8.867 5.27,-0.16 8.441,-3.242 9.41,-9.14 7.11,0 13.399,0.82 18.91,2.379 -2.929,2.742 -3.629,6.492 -2.07,11.21" /><path
         id="path42"
         style="fill:#005494;fill-opacity:1;fill-rule:evenodd;stroke:none"
         d="m 437.07,401.25 c 4.141,1.559 8.36,3.051 12.7,4.41 0.39,1.41 0.5,2.781 0.308,4.141 -3.949,0 -7.699,0.508 -11.25,1.488 l -2.348,0.59 c -2.531,-3.328 -2.378,-6.879 0.59,-10.629" /><path
         id="path44"
         style="fill:#11b3e8;fill-opacity:1;fill-rule:evenodd;stroke:none"
         d="m 35.6992,510.16 c -2.3789,-25.98 9.0703,-58.25 34.2227,-96.801 25,-38.75 50.6991,-73.48 77.0271,-104.179 26.571,-30.508 40.942,-46.641 43.09,-48.399 -68.867,60.199 -113.7109,108.707 -134.5702,145.508 -20.8594,36.602 -29.918,63.16 -27.1485,79.691 2.7695,16.481 5.2305,24.571 7.3789,24.18 M 504.379,75.7383 C 448.48,106.988 389.18,149.219 326.41,202.34 c -42.308,36.211 -80.082,72.308 -113.32,108.281 -49.031,53.52 -84.731,101.758 -107.149,144.649 -22.4215,42.89 -27.3512,74.378 -14.7691,94.421 0.1992,0 0.3867,0.11 0.5898,0.309 C 48.8711,545.66 20.5508,531.02 6.76172,506.02 -8.75,472.578 2.42188,430.391 40.4297,379.41 78.1992,328.48 135.469,276.52 212.191,223.551 251.949,196.211 295.512,170.16 342.93,145.352 398.441,116.84 452.23,93.6289 504.379,75.7383" /><path
         id="path46"
         style="fill:#ffffff;fill-opacity:1;fill-rule:evenodd;stroke:none"
         d="m 35.6992,510.469 c -1.9883,0.191 -4.4492,-7.891 -7.3789,-24.219 -2.7695,-16.52 6.2891,-43.199 27.1485,-79.961 20.8593,-36.641 65.7032,-85.117 134.5702,-145.508 -2.148,1.758 -16.41,18.008 -42.769,48.668 -26.571,30.512 -52.3481,65.16 -77.3481,103.91 -25,38.75 -36.3711,71.129 -34.2227,97.11" /><path
         id="path48"
         style="fill:#005596;fill-opacity:1;fill-rule:nonzero;stroke:none"
         d="m 1148.98,100.781 c -7.61,0 -14.29,2.809 -20,8.438 -5.62,5.703 -8.43,12.383 -8.43,20 V 437.34 c 0,7.582 2.81,14.219 8.43,19.851 5.71,5.7 12.39,8.59 20,8.59 h 170 c 7.7,0 14.38,-2.89 20,-8.59 5.71,-5.632 8.6,-12.312 8.6,-20 0,-7.621 -2.89,-14.179 -8.6,-19.691 -5.62,-5.551 -12.3,-8.281 -20,-8.281 h -123.9 c -3.05,0 -4.53,-1.489 -4.53,-4.379 v -80.621 c 0,-2.93 1.48,-4.379 4.53,-4.379 h 115.47 c 7.57,0 13.98,-2.731 19.22,-8.121 5.19,-5.309 7.81,-11.68 7.81,-19.059 0,-7.308 -2.62,-13.558 -7.81,-18.75 -5.24,-5.121 -11.65,-7.66 -19.22,-7.66 h -115.47 c -3.05,0 -4.53,-1.52 -4.53,-4.531 v -100 c 0,-2.93 1.48,-4.379 4.53,-4.379 h 123.9 c 7.7,0 14.38,-2.77 20,-8.281 5.71,-5.539 8.6,-12.149 8.6,-19.84 0,-7.617 -2.89,-14.297 -8.6,-20 -5.62,-5.629 -12.3,-8.438 -20,-8.438 z m 295.79,0 c -7.62,0 -14.3,2.809 -20,8.438 -5.63,5.703 -8.44,12.383 -8.44,20 V 332.34 c 0,7.582 2.81,14.219 8.44,19.851 5.7,5.7 12.38,8.59 20,8.59 h 6.56 c 8.01,0 14.72,-2.769 20.15,-8.281 5.51,-5.551 8.44,-12.27 8.75,-20.16 v -3.59 c 0,-0.309 0.16,-0.469 0.47,-0.469 0.39,0 0.78,0.16 1.1,0.469 22.69,24.691 49.22,37.031 79.53,37.031 30.31,0 52.38,-8.59 66.25,-25.781 13.83,-17.191 20.78,-45.781 20.78,-85.781 v -125 c 0,-7.617 -2.89,-14.297 -8.59,-20 -5.63,-5.629 -12.31,-8.438 -20,-8.438 h -8.44 c -7.74,0 -14.34,2.809 -19.85,8.438 -5.43,5.703 -8.12,12.383 -8.12,20 v 120 c 0,25 -3.28,42.07 -9.84,51.25 -6.49,9.14 -18.05,13.75 -34.69,13.75 -13.67,0 -26.33,-5.86 -37.97,-17.5 -11.68,-11.68 -17.5,-24.18 -17.5,-37.5 v -130 c 0,-7.617 -2.89,-14.297 -8.59,-20 -5.63,-5.629 -12.31,-8.438 -20,-8.438 z" /><path
         id="path50"
         style="fill:#005596;fill-opacity:1;fill-rule:nonzero;stroke:none"
         d="m 1716.8,302.34 c -6.68,0 -12.35,2.39 -17.03,7.191 -4.61,4.77 -6.88,10.508 -6.88,17.188 0,6.64 2.27,12.34 6.88,17.031 4.68,4.691 10.35,7.031 17.03,7.031 h 24.06 c 3.01,0 4.53,1.489 4.53,4.528 v 62.031 c 0,7.582 2.7,14.219 8.13,19.851 5.5,5.7 12.1,8.59 19.84,8.59 h 10 c 7.69,0 14.37,-2.89 20,-8.59 5.62,-5.632 8.44,-12.269 8.44,-19.851 v -62.031 c 0,-3.039 1.48,-4.528 4.53,-4.528 h 57.03 c 6.64,0 12.38,-2.34 17.19,-7.031 4.88,-4.691 7.34,-10.391 7.34,-17.031 0,-6.68 -2.46,-12.418 -7.34,-17.188 -4.81,-4.801 -10.55,-7.191 -17.19,-7.191 h -57.03 c -3.05,0 -4.53,-1.36 -4.53,-4.059 V 197.34 c 0,-21.68 2.34,-35.699 7.03,-42.031 4.69,-6.36 14.37,-9.528 29.06,-9.528 8.01,0 13.99,0.309 17.97,0.938 6.64,0.703 12.5,-0.778 17.5,-4.528 5,-3.671 7.5,-8.601 7.5,-14.851 0,-7.418 -2.46,-14.02 -7.34,-19.84 -4.81,-5.859 -10.71,-9.0586 -17.66,-9.6914 -14.69,-1.3281 -25.7,-2.0273 -32.97,-2.0273 -32.42,0 -55.12,6.9177 -68.12,20.7777 -12.93,13.832 -19.38,38.601 -19.38,74.222 v 107.5 c 0,2.699 -1.52,4.059 -4.53,4.059 z" /><path
         id="path52"
         style="fill:#005596;fill-opacity:1;fill-rule:nonzero;stroke:none"
         d="m 2068.16,319.219 c -16.99,0 -30.07,-4.77 -39.21,-14.219 -9.18,-9.488 -14.93,-24.77 -17.19,-45.781 0,-2.617 1.29,-3.91 3.9,-3.91 h 97.97 c 2.7,0 4.07,1.293 4.07,3.91 -1.37,40 -17.9,60 -49.54,60 z m 12.5,-223.4377 c -43.67,0 -77.26,11.4097 -100.78,34.2187 -23.43,22.809 -35.15,56.41 -35.15,100.781 0,43.949 10.47,77.418 31.4,100.469 21.02,23.012 51.41,34.531 91.1,34.531 73.94,0 111.91,-41.992 113.9,-125.941 0.39,-8.039 -2.42,-14.762 -8.43,-20.149 -6.06,-5.312 -13.05,-7.972 -20.94,-7.972 H 2015.2 c -3.05,0 -4.18,-1.489 -3.44,-4.379 2.26,-22.418 9.69,-38.711 22.19,-48.899 12.5,-10.121 30.7,-15.16 54.68,-15.16 15,0 31.64,2.5 50,7.5 6.02,1.641 11.6,0.668 16.72,-2.972 5.2,-3.668 7.81,-8.668 7.81,-15 0,-7.731 -2.26,-14.489 -6.71,-20.309 -4.5,-5.859 -10.43,-9.449 -17.82,-10.781 -18.67,-3.9495 -37.97,-5.9377 -57.97,-5.9377 z" /><path
         id="path54"
         style="fill:#005596;fill-opacity:1;fill-rule:nonzero;stroke:none"
         d="m 2264.1,100.781 c -7.62,0 -14.3,2.809 -20,8.438 -5.62,5.703 -8.44,12.383 -8.44,20 V 332.34 c 0,7.582 2.82,14.219 8.44,19.851 5.7,5.7 12.38,8.59 20,8.59 h 10 c 7.7,0 14.38,-2.89 20,-8.59 5.7,-5.632 8.6,-12.269 8.6,-19.851 v -21.09 c 0,-0.309 0.15,-0.469 0.46,-0.469 0.63,0 0.94,0.16 0.94,0.469 9.69,13.32 22.35,24.219 37.97,32.66 15.7,8.512 32.89,13.82 51.56,15.93 6.96,0.629 12.97,-1.68 17.97,-6.871 5,-5.117 7.5,-11.207 7.5,-18.278 0,-6.992 -2.5,-12.972 -7.5,-17.972 -5,-5 -11.01,-7.809 -17.97,-8.438 -58.98,-4.691 -88.43,-34.691 -88.43,-90 v -89.062 c 0,-7.617 -2.9,-14.297 -8.6,-20 -5.62,-5.629 -12.3,-8.438 -20,-8.438 z" /><path
         id="path56"
         style="fill:#005596;fill-opacity:1;fill-rule:nonzero;stroke:none"
         d="m 2652.42,100.781 c -7.73,0 -14.33,2.809 -19.84,8.438 -5.43,5.703 -8.13,12.383 -8.13,20 V 437.34 c 0,7.582 2.7,14.219 8.13,19.851 5.51,5.7 12.11,8.59 19.84,8.59 h 165 c 7.7,0 14.38,-2.89 20,-8.59 5.63,-5.632 8.44,-12.312 8.44,-20 0,-7.621 -2.81,-14.179 -8.44,-19.691 -5.62,-5.551 -12.3,-8.281 -20,-8.281 h -119.06 c -2.62,0 -3.91,-1.489 -3.91,-4.379 v -87.5 c 0,-2.731 1.29,-4.059 3.91,-4.059 h 110.62 c 7.27,0 13.6,-2.621 18.91,-7.812 5.31,-5.117 7.97,-11.52 7.97,-19.219 0,-7.621 -2.66,-14.02 -7.97,-19.219 -5.31,-5.23 -11.64,-7.812 -18.91,-7.812 h -110.62 c -2.62,0 -3.91,-1.328 -3.91,-3.91 v -126.09 c 0,-7.617 -2.89,-14.297 -8.59,-20 -5.63,-5.629 -12.31,-8.438 -20,-8.438 z" /><path
         id="path58"
         style="fill:#005596;fill-opacity:1;fill-rule:nonzero;stroke:none"
         d="m 2955.86,100.781 c -7.62,0 -14.3,2.809 -20,8.438 -5.63,5.703 -8.44,12.383 -8.44,20 V 332.34 c 0,7.582 2.81,14.219 8.44,19.851 5.7,5.7 12.38,8.59 20,8.59 h 12.97 c 7.69,0 14.37,-2.89 20,-8.59 5.7,-5.632 8.59,-12.269 8.59,-19.851 V 129.219 c 0,-7.617 -2.89,-14.297 -8.59,-20 -5.63,-5.629 -12.31,-8.438 -20,-8.438 z m 0,315 c -7.62,0 -14.3,2.809 -20,8.438 -5.63,5.703 -8.44,12.383 -8.44,20 v 3.121 c 0,7.582 2.81,14.219 8.44,19.851 5.7,5.7 12.38,8.59 20,8.59 h 12.97 c 7.69,0 14.37,-2.89 20,-8.59 5.7,-5.632 8.59,-12.269 8.59,-19.851 v -3.121 c 0,-7.617 -2.89,-14.297 -8.59,-20 -5.63,-5.629 -12.31,-8.438 -20,-8.438 z" /><path
         id="path60"
         style="fill:#005596;fill-opacity:1;fill-rule:nonzero;stroke:none"
         d="m 3109.8,100.781 c -7.61,0 -14.29,2.809 -20,8.438 -5.62,5.703 -8.43,12.383 -8.43,20 V 332.34 c 0,7.582 2.81,14.219 8.43,19.851 5.71,5.7 12.39,8.59 20,8.59 h 6.57 c 8.01,0 14.72,-2.769 20.15,-8.281 5.51,-5.551 8.44,-12.27 8.75,-20.16 v -3.59 c 0,-0.309 0.16,-0.469 0.47,-0.469 0.39,0 0.78,0.16 1.1,0.469 22.69,24.691 49.21,37.031 79.53,37.031 30.31,0 52.38,-8.59 66.25,-25.781 13.83,-17.191 20.78,-45.781 20.78,-85.781 v -125 c 0,-7.617 -2.89,-14.297 -8.6,-20 -5.62,-5.629 -12.3,-8.438 -20,-8.438 h -8.43 c -7.74,0 -14.34,2.809 -19.85,8.438 -5.43,5.703 -8.12,12.383 -8.12,20 v 120 c 0,25 -3.28,42.07 -9.85,51.25 -6.48,9.14 -18.04,13.75 -34.68,13.75 -13.67,0 -26.33,-5.86 -37.97,-17.5 -11.68,-11.68 -17.5,-24.18 -17.5,-37.5 v -130 c 0,-7.617 -2.89,-14.297 -8.6,-20 -5.62,-5.629 -12.3,-8.438 -20,-8.438 z" /><path
         id="path62"
         style="fill:#005596;fill-opacity:1;fill-rule:nonzero;stroke:none"
         d="m 3502.7,225.781 c -47.74,0 -71.57,-14.691 -71.57,-44.062 0,-10.629 3.05,-19.297 9.22,-25.938 6.25,-6.679 14.14,-10 23.75,-10 19.06,0 34.42,5.86 46.1,17.66 11.64,11.868 17.5,28.161 17.5,48.899 v 8.91 c 0,3.012 -1.53,4.531 -4.54,4.531 z M 3446.13,95.7813 c -22.61,0 -41.36,7.3787 -56.25,22.1877 -14.8,14.883 -22.18,34.14 -22.18,57.812 0,28.949 11.01,51.449 33.12,67.5 22.19,16.02 56.13,24.059 101.88,24.059 h 20.46 c 3.01,0 4.54,1.449 4.54,4.379 v 4.062 c 0,15.309 -3.72,26.02 -11.1,32.188 -7.3,6.25 -20.27,9.371 -38.9,9.371 -19.38,0 -43.09,-3.551 -71.1,-10.621 -5.94,-1.68 -11.4,-0.59 -16.4,3.281 -5,3.828 -7.5,8.949 -7.5,15.309 0,7.582 2.26,14.461 6.87,20.632 4.69,6.25 10.7,10.039 18.13,11.399 25.31,5.629 49.1,8.441 71.4,8.441 42.7,0 72.54,-7.66 89.53,-22.972 16.96,-15.309 25.47,-42.149 25.47,-80.469 V 129.219 c 0,-7.617 -2.77,-14.297 -8.28,-20 -5.43,-5.629 -11.99,-8.438 -19.69,-8.438 h -5.47 c -8.04,0 -14.92,2.739 -20.62,8.278 -5.63,5.511 -8.59,12.23 -8.91,20.16 v 7.031 c 0,0.309 -0.15,0.469 -0.47,0.469 -0.62,0 -0.93,-0.16 -0.93,-0.469 -20.43,-26.988 -48.28,-40.4687 -83.6,-40.4687 z" /><path
         id="path64"
         style="fill:#005596;fill-opacity:1;fill-rule:nonzero;stroke:none"
         d="m 3688.91,100.781 c -7.62,0 -14.3,2.809 -20,8.438 -5.63,5.703 -8.44,12.383 -8.44,20 V 332.34 c 0,7.582 2.81,14.219 8.44,19.851 5.7,5.7 12.38,8.59 20,8.59 h 6.56 c 8.01,0 14.73,-2.769 20.15,-8.281 5.51,-5.551 8.44,-12.27 8.76,-20.16 v -3.59 c 0,-0.309 0.15,-0.469 0.46,-0.469 0.39,0 0.78,0.16 1.1,0.469 22.69,24.691 49.22,37.031 79.53,37.031 30.31,0 52.38,-8.59 66.25,-25.781 13.83,-17.191 20.78,-45.781 20.78,-85.781 v -125 c 0,-7.617 -2.89,-14.297 -8.59,-20 -5.63,-5.629 -12.31,-8.438 -20,-8.438 h -8.44 c -7.74,0 -14.34,2.809 -19.85,8.438 -5.42,5.703 -8.12,12.383 -8.12,20 v 120 c 0,25 -3.28,42.07 -9.84,51.25 -6.49,9.14 -18.05,13.75 -34.69,13.75 -13.67,0 -26.33,-5.86 -37.97,-17.5 -11.68,-11.68 -17.5,-24.18 -17.5,-37.5 v -130 c 0,-7.617 -2.89,-14.297 -8.59,-20 -5.63,-5.629 -12.31,-8.438 -20,-8.438 z" /><path
         id="path66"
         style="fill:#005596;fill-opacity:1;fill-rule:nonzero;stroke:none"
         d="m 4070.7,95.7813 c -41.25,0 -73.08,11.4097 -95.47,34.2187 -22.3,22.809 -33.43,56.41 -33.43,100.781 0,43.629 10.7,77.028 32.18,100.16 21.57,23.2 52.11,34.84 91.72,34.84 17.7,0 34.73,-1.172 51.1,-3.441 7.58,-1.051 13.9,-4.61 18.9,-10.621 5,-5.938 7.5,-12.93 7.5,-20.938 0,-6.679 -2.61,-12.031 -7.81,-16.09 -5.12,-3.992 -11.01,-5.281 -17.66,-3.91 -13.04,2.699 -27.5,4.059 -43.43,4.059 -21.06,0 -36.72,-6.68 -47.03,-20 -10.32,-13.36 -15.47,-34.68 -15.47,-64.059 0,-30 5.47,-51.519 16.4,-64.531 11.02,-13.051 28.05,-19.531 51.1,-19.531 16.32,0 30.5,1.48 42.5,4.531 6.32,1.641 12.07,0.469 17.18,-3.59 5.2,-3.988 7.82,-9.07 7.82,-15.32 0,-8.039 -2.46,-15.07 -7.35,-21.09 -4.8,-5.941 -11.05,-9.609 -18.75,-10.941 -16.99,-3.0082 -33.67,-4.5277 -50,-4.5277 z" /><path
         id="path68"
         style="fill:#005596;fill-opacity:1;fill-rule:nonzero;stroke:none"
         d="m 4319.14,319.219 c -16.99,0 -30.08,-4.77 -39.22,-14.219 -9.18,-9.488 -14.92,-24.77 -17.19,-45.781 0,-2.617 1.29,-3.91 3.91,-3.91 h 97.97 c 2.69,0 4.06,1.293 4.06,3.91 -1.37,40 -17.89,60 -49.53,60 z m 12.5,-223.4377 c -43.67,0 -77.26,11.4097 -100.78,34.2187 -23.44,22.809 -35.16,56.41 -35.16,100.781 0,43.949 10.47,77.418 31.41,100.469 21.01,23.012 51.41,34.531 91.09,34.531 73.95,0 111.92,-41.992 113.91,-125.941 0.39,-8.039 -2.42,-14.762 -8.44,-20.149 -6.05,-5.312 -13.05,-7.972 -20.94,-7.972 h -136.56 c -3.05,0 -4.18,-1.489 -3.44,-4.379 2.27,-22.418 9.69,-38.711 22.19,-48.899 12.5,-10.121 30.7,-15.16 54.69,-15.16 15,0 31.64,2.5 50,7.5 6.01,1.641 11.6,0.668 16.72,-2.972 5.19,-3.668 7.81,-8.668 7.81,-15 0,-7.731 -2.26,-14.489 -6.72,-20.309 -4.49,-5.859 -10.43,-9.449 -17.81,-10.781 -18.67,-3.9495 -37.97,-5.9377 -57.97,-5.9377 z" /></g></g></svg>