<svg xmlns="http://www.w3.org/2000/svg" width="1943.656" height="60" viewBox="0 0 514.259 128.179" class="desktop-icon"><defs><clipPath clipPathUnits="userSpaceOnUse" id="prefix__a"><path d="M0 1200h1968.756V0H0z"></path></clipPath></defs><g clip-path="url(#prefix__a)" transform="matrix(.35278 0 0 -.35278 -79.793 258.114)"><path d="M503.087 501.377h37.719l64.206 107.639h-37.72zm-55.57-93.162c-4.036-6.767-10.577-7.502-13.202-7.503h-.01c-2.631 0-9.16.732-13.2 7.483L351.4 524.674h-37.751l79.66-133.112c8.71-14.557 24.032-23.244 40.994-23.244h.034c16.976.012 32.303 8.723 41 23.302l34.634 58.063h-37.72zm188.067 299.262c-8.6 15.144-24.132 24.184-41.546 24.184h-319.99c-17.429 0-32.966-9.051-41.562-24.213-8.596-15.16-8.385-33.141.564-48.096l49.661-82.985h37.752l-59.616 99.618c-4.154 6.941-1.51 13.142-.182 15.486 1.33 2.344 5.295 7.798 13.383 7.798h319.99c8.083 0 12.047-5.447 13.377-7.788s3.975-8.536-.166-15.477l-9.123-15.294h37.664c8.18 14.69 8.146 32.059-.206 46.767" fill="#fcbe0c"></path><path d="M625.022 618.637H372.249c-8.945 0-16.197 7.251-16.197 16.196s7.252 16.197 16.197 16.197h252.773c8.945 0 16.196-7.252 16.196-16.197s-7.251-16.196-16.196-16.196" fill="#5975b8"></path><path d="M439.274 533.925H273.226c-8.945 0-16.196 7.252-16.196 16.196 0 8.946 7.25 16.197 16.195 16.197h166.047c8.945 0 16.196-7.251 16.196-16.197 0-8.944-7.25-16.196-16.195-16.196" fill="#fcbe0c"></path><path d="M540.942 459.345H428.016c-8.945 0-16.197 7.25-16.197 16.196 0 8.945 7.252 16.197 16.197 16.197h112.926c8.945 0 16.196-7.252 16.196-16.197s-7.25-16.196-16.196-16.196M1295.193 629.362l-78.086-23.143v23.143c0 10.18 8.501 15.271 25.504 15.271h30.542c14.692 0 22.04-4.514 22.04-13.539zm-12.909 35.265h-48.647c-29.494 0-44.238-10.024-44.238-30.07v-56.046c0-11.649 4.511-20.15 13.54-25.503 7.135-4.514 18.207-6.77 33.217-6.77h87.06v20.31h-81.865c-7.977 0-13.593.837-16.845 2.517-4.723 2.834-7.084 7.346-7.084 13.54v3.936l106.11 31.328v14.8c0 21.304-13.752 31.958-41.248 31.958m60.856-118.389h27.708V703.67h-27.708zm293 118.704h-48.803c-28.129 0-42.192-12.07-42.192-36.21v-82.18h27.708v75.096c0 12.068 7.871 18.105 23.614 18.105h30.857c15.532 0 23.301-6.037 23.301-18.105v-75.096h27.392v82.18c0 24.14-13.96 36.21-41.877 36.21m-888.917 29.046c-8.398-6.246-12.595-14.826-12.595-25.74v-88.634c0-10.917 4.723-19.364 14.17-25.347 8.604-5.352 20.623-8.029 36.051-8.029h89.421v22.985h-80.92c-18.26 0-27.393 5.876-27.393 17.632v26.607h102.174v22.67H765.957v26.92c0 11.545 9.026 17.318 27.078 17.318h81.235v22.985h-92.255c-14.799 0-26.397-3.124-34.792-9.367m751.391-112.958c0-4.934-2.152-8.658-6.455-11.177-3.254-2.204-7.978-3.306-14.169-3.306h-36.839c-6.403 0-11.335 1.102-14.799 3.306-4.513 2.52-6.769 6.35-6.769 11.492v47.702c0 5.456 2.256 9.446 6.77 11.965 3.672 2.413 9.288 3.621 16.845 3.621h32.903c7.241 0 12.594-1.208 16.058-3.62 4.303-2.52 6.455-6.51 6.455-11.966zm14.483 77.457c-6.194 4.093-15.955 6.14-29.282 6.14h-48.017c-13.33 0-23.354-2.047-30.069-6.14-9.237-5.667-13.854-13.645-13.854-23.93V575.52c0-9.027 3.645-16.164 10.941-21.41 7.294-5.25 18.287-7.872 32.982-7.872h48.017c12.91 0 22.565 2.047 28.968 6.14 9.024 5.352 13.54 13.067 13.54 23.142v59.037c0 10.6-4.409 18.577-13.226 23.93m-392.427 5.667h-61.87v39.516h-27.709V546.552h27.708v86.116c0 4.196 2.256 6.298 6.77 6.298h49.748c8.29 0 14.064-1.575 17.317-4.724 3.252-3.148 4.881-8.658 4.881-16.53v-70.844h27.393v79.66c0 25.084-14.746 37.626-44.238 37.626M933.395 582.29v47.072c0 5.876 1.626 9.891 4.881 12.043 3.251 2.15 8.92 3.228 17.002 3.228h57.777v20.31h-69.269c-25.4 0-38.099-10.025-38.099-30.07v-57.306c0-20.887 15.06-31.329 45.183-31.329h62.816v20.31h-56.99c-15.535 0-23.3 5.246-23.3 15.742" fill="#5975b8"></path><path d="M1662.66 423.584c0-4.703-1.52-7.994-4.559-9.874-3.038-1.883-7.884-2.821-14.54-2.821h-22.678c-6.945 0-11.756.938-14.432 2.821-3.255 2.387-4.883 5.822-4.883 10.308v50.131c0 5.063 1.482 8.59 4.45 10.581 2.964 1.988 7.92 2.983 14.865 2.983h22.678c6.8 0 11.682-.995 14.65-2.983 2.965-1.991 4.448-5.518 4.448-10.581zm-13.998 79.972h-32.879c-11.43 0-19.895-1.882-25.392-5.643-6.944-4.558-10.417-10.959-10.417-19.206v-59.246c0-8.32 3.4-14.649 10.201-18.989 5.642-3.618 14.177-5.426 25.608-5.426h32.661c23.655 0 35.484 8.209 35.484 24.632v59.029c0 16.565-11.757 24.849-35.266 24.849m-205.535-67.059l21.376 48.286 23.547-48.286zm22.461 66.95c-8.176 0-13.889-3.255-17.145-9.765l-48.178-98.636h23.113l12.912 26.585h58.596l12.913-26.585h23.112l-48.179 98.636c-3.255 6.51-8.97 9.765-17.144 9.765m-135.763-78.343c0-9.549-5.933-14.324-17.796-14.324h-46.659v77.259h46.66c11.862 0 17.795-4.341 17.795-13.021zm-11.177 78.56h-74.872V395.046h75.306c10.271 0 18.176 2.241 23.71 6.727 5.534 4.485 8.301 10.526 8.301 18.122v59.463c0 16.204-10.816 24.306-32.445 24.306" fill="#fcbe0c"></path><path d="M1201.528 449.752H748.949v-13.795h452.579z" fill="#5975b8"></path></g></svg>
